# xmcd
# 
# Track frame offsets:
#     150
#     14772
#     34217
#     50266
#     66344
#     83420
#     96473
#     110012
#     123264
#     142002
#     157439
# 
# Disc length: 2340
# 
# Revision: 3
# Processed by: cddbd v1.5.2PL0 Copyright (c) Steve Scherf et al.
# Submitted via: fre:ac v1.0.31
# 
DISCID=a009220b
DTITLE=Jewel - Sweet and Wild [Acoustic Version]
DYEAR=2010
DGENRE=Folk/Country
TTITLE0=No Good in Goodbye (Acoustic Version)
TTITLE1=I Love You Forever (Acoustic Version)
TTITLE2=Fading (Acoustic Version)
TTITLE3=What You Are (Acoustic Version)
TTITLE4=As Bad As It Gets (Acoustic Version)
TTITLE5=Summer Home in Your Arms (Acoustic Version)
TTITLE6=Stay Here Forever (Acoustic Version)
TTITLE7=No More Heart Aches (Acoustic Version)
TTITLE8=One True Thing (Acoustic Version)
TTITLE9=Ten (Acoustic Version)
TTITLE10=Satisfied (Acoustic Version)
EXTD=
EXTT0=
EXTT1=
EXTT2=
EXTT3=
EXTT4=
EXTT5=
EXTT6=
EXTT7=
EXTT8=
EXTT9=
EXTT10=
PLAYORDER=
